<?xml version="1.0" standalone="no"?>
<!DOCTYPE svg PUBLIC "-//W3C//DTD SVG 20010904//EN"
 "http://www.w3.org/TR/2001/REC-SVG-20010904/DTD/svg10.dtd">
<svg version="1.0" xmlns="http://www.w3.org/2000/svg"
 width="1100.000000pt" height="1100.000000pt" viewBox="0 0 1100.000000 1100.000000"
 preserveAspectRatio="xMidYMid meet">
<metadata>
Created by potrace 1.14, written by Peter Selinger 2001-2017
</metadata>
<g transform="translate(0.000000,1100.000000) scale(0.100000,-0.100000)"
fill="#000000" stroke="none">
<path d="M4835 10119 c-363 -210 -694 -401 -735 -424 -41 -23 -374 -215 -740
-427 -366 -212 -688 -398 -716 -414 -29 -16 -372 -213 -763 -439 l-710 -410
-1 -2501 c0 -1990 3 -2504 12 -2512 7 -5 931 -540 2053 -1187 1122 -648 2089
-1206 2148 -1241 60 -35 112 -64 116 -64 4 0 219 122 477 271 258 149 588 340
734 424 146 84 481 277 745 430 264 153 584 337 710 410 803 462 1642 948
1653 957 9 8 12 523 12 2512 l0 2501 -677 390 c-372 215 -709 409 -747 431
-242 142 -2884 1664 -2896 1668 -9 4 -287 -151 -675 -375z m2786 -899 c365
-211 670 -388 677 -395 11 -10 -122 -90 -674 -409 l-687 -396 -688 397 c-379
218 -686 400 -683 402 23 23 1363 789 1375 787 9 -2 315 -176 680 -386z m1428
-825 c368 -212 676 -391 685 -398 15 -11 -74 -65 -664 -406 -375 -216 -687
-394 -693 -395 -14 -1 -1377 783 -1377 793 1 8 1352 789 1368 790 8 1 314
-172 681 -384z m-4284 -842 c371 -213 674 -390 675 -393 0 -7 -1363 -793
-1375 -793 -21 0 -1374 788 -1366 796 4 4 311 183 682 398 402 232 681 388
692 385 9 -2 321 -179 692 -393z m1419 -819 c369 -213 676 -392 683 -398 9 -8
-164 -112 -677 -408 l-689 -398 -690 398 c-379 218 -686 400 -682 404 15 16
1357 787 1370 788 8 0 316 -174 685 -386z m2158 -1216 c-4 -4 -316 -185 -692
-403 l-685 -395 -3 792 c-1 435 1 795 5 799 5 5 316 186 693 403 l685 396 3
-792 c1 -436 -1 -795 -6 -800z m-4787 -586 l480 -277 3 -798 2 -797 -48 27
c-27 16 -337 195 -690 398 l-642 370 0 797 0 797 208 -120 c114 -66 423 -244
687 -397z m4793 -1938 l-3 -795 -675 -391 c-371 -214 -683 -392 -692 -395 -17
-5 -18 37 -18 789 l0 794 687 397 c379 218 691 397 695 397 5 0 7 -358 6 -796z"/>
</g>
</svg>
