<?xml version="1.0" standalone="no"?>
<!DOCTYPE svg PUBLIC "-//W3C//DTD SVG 20010904//EN"
    "http://www.w3.org/TR/2001/REC-SVG-20010904/DTD/svg10.dtd">
<svg height="600.000000pt" preserveAspectRatio="xMidYMid meet"
     version="1.0" viewBox="0 0 600.000000 600.000000" width="600.000000pt"
     xmlns="http://www.w3.org/2000/svg">
  <metadata>
    Created by potrace 1.11, written by Peter Selinger 2001-2013
  </metadata>
  <g fill="#000000"
     stroke="none" transform="translate(0.000000,600.000000) scale(0.100000,-0.100000)">
    <path d="M1528 5802 c-16 -2 -28 -8 -28 -13 0 -5 -6 -9 -12 -7 -7 1 -33 -9
-58 -21 -25 -13 -45 -23 -45 -21 0 1 -17 -14 -37 -33 -21 -20 -38 -40 -38 -46
0 -6 -6 -11 -13 -11 -13 0 -50 -54 -54 -79 -1 -8 -6 -17 -11 -20 -5 -3 -33
-98 -62 -211 -30 -113 -58 -207 -62 -208 -5 -2 -6 -7 -3 -11 2 -4 -9 -56 -24
-114 -16 -58 -26 -108 -23 -111 3 -3 0 -6 -7 -6 -7 0 -11 -8 -10 -17 1 -10 0
-25 -4 -33 -16 -43 -48 -165 -50 -190 -1 -17 -5 -30 -8 -30 -5 0 -33 -102 -34
-125 0 -5 -3 -12 -7 -15 -4 -3 -9 -21 -11 -40 -2 -19 -7 -42 -10 -50 -3 -8
-11 -33 -17 -55 -6 -22 -14 -47 -17 -55 -14 -37 -11 -66 8 -86 12 -13 17 -27
13 -38 -5 -14 87 -112 416 -441 233 -233 427 -422 432 -419 4 3 8 14 8 25 0
11 7 22 15 25 8 4 13 9 10 13 -6 10 19 91 31 99 5 4 10 18 12 32 1 14 9 39 17
57 8 17 18 45 21 62 4 17 10 31 15 31 5 0 6 7 3 15 -4 8 -1 15 5 15 6 0 10 3
9 8 0 4 1 14 5 22 3 8 17 49 31 90 14 41 31 91 39 110 8 19 18 44 22 55 5 11
7 26 6 33 -1 6 3 12 9 12 6 0 10 6 9 13 -1 6 1 21 6 32 27 68 34 86 34 88 -1
3 52 149 66 182 7 17 25 68 41 115 16 47 34 88 39 92 6 5 6 8 1 8 -6 0 -5 5 2
12 7 7 12 19 12 28 0 8 7 28 15 44 9 16 13 31 10 34 -3 3 -1 10 3 16 5 6 16
31 25 56 9 25 22 59 28 75 7 17 13 35 14 40 0 6 7 23 13 38 11 25 9 33 -9 58
-11 16 -17 34 -14 39 6 10 -40 81 -57 88 -5 2 -6 8 -2 13 3 5 1 9 -4 9 -6 0
-61 62 -123 138 -62 75 -116 139 -119 142 -3 3 -66 79 -140 170 -73 91 -141
174 -151 185 -10 11 -32 37 -50 58 -33 39 -37 40 -131 29z"/>
    <path d="M1843 5744 c43 -46 46 -58 15 -48 -19 6 -16 -1 17 -38 55 -61 124
-144 161 -193 17 -22 44 -54 60 -71 17 -18 41 -48 54 -68 14 -20 30 -36 37
-36 6 0 14 -8 17 -17 3 -10 28 -43 56 -73 27 -30 49 -58 50 -61 0 -4 17 -25
38 -49 l39 -42 18 37 c9 21 18 43 20 49 1 6 5 18 8 26 3 8 17 49 32 90 14 41
30 83 36 92 5 10 9 22 9 27 0 5 8 26 17 47 9 22 17 46 17 54 0 8 5 18 10 22 6
4 -2 12 -17 19 -29 13 -33 29 -17 59 8 16 2 20 -53 34 -34 9 -111 29 -172 45
-60 16 -146 39 -190 50 -44 12 -88 26 -97 31 -13 7 -18 7 -18 -1 0 -8 -4 -8
-12 -1 -7 5 -40 17 -73 25 -33 9 -69 19 -80 23 -14 5 -8 -5 18 -32z"/>
    <path d="M2597 5429 c-26 -71 -45 -134 -42 -139 4 -6 2 -10 -3 -10 -11 0 -55
-120 -44 -120 4 0 1 -4 -7 -9 -8 -5 -15 -17 -16 -28 -1 -10 -9 -35 -18 -57
-21 -47 -21 -43 3 -73 11 -14 17 -29 14 -34 -7 -12 23 -63 61 -104 17 -18 37
-41 45 -51 77 -98 186 -224 192 -224 4 0 8 -6 8 -14 0 -8 10 -22 22 -30 12 -9
18 -16 13 -16 -5 0 -2 -6 7 -12 17 -15 158 -183 263 -315 17 -21 49 -58 71
-82 39 -40 42 -42 49 -22 3 11 11 21 16 21 5 0 9 9 9 19 0 11 6 26 13 33 6 7
12 18 12 23 0 6 14 39 32 75 17 36 49 103 71 150 22 47 52 112 68 145 16 33
29 68 30 78 1 10 11 28 23 41 11 12 21 28 21 35 0 7 22 58 49 114 28 56 51
109 53 117 2 8 5 17 8 20 3 3 15 25 26 50 12 25 35 74 52 109 31 64 33 87 6
77 -8 -3 -15 0 -16 7 -4 34 -3 43 5 48 17 12 -3 27 -43 34 -22 4 -40 12 -40
18 0 7 -5 5 -10 -3 -7 -11 -10 -11 -10 -2 0 7 -4 10 -10 7 -5 -3 -10 -1 -10 5
0 6 -4 9 -9 5 -11 -6 -153 30 -193 50 -18 9 -28 10 -28 3 0 -7 -4 -7 -13 0 -7
6 -24 13 -37 16 -14 2 -67 16 -119 30 -52 14 -98 23 -102 20 -5 -3 -9 -1 -9 4
0 6 -17 13 -37 17 -21 4 -56 13 -78 20 -22 8 -53 16 -70 19 -16 3 -70 17 -118
31 -48 14 -92 23 -97 20 -4 -3 -10 -1 -12 4 -1 6 -25 -49 -51 -120z"/>
    <path d="M3822 5231 c-6 -3 -20 -31 -32 -61 -12 -30 -25 -57 -29 -60 -4 -3
-16 -29 -27 -59 -10 -29 -24 -56 -31 -58 -7 -3 -11 -9 -8 -13 3 -4 -11 -41
-30 -81 -20 -41 -46 -95 -58 -121 -12 -26 -25 -48 -29 -48 -4 0 -5 -7 -2 -15
4 -8 1 -15 -6 -15 -6 0 -9 -4 -5 -9 3 -5 -2 -17 -11 -25 -8 -9 -13 -16 -9 -16
3 0 -1 -12 -9 -27 -30 -55 -76 -162 -76 -178 0 -9 -3 -14 -8 -11 -4 2 -21 -29
-37 -70 -16 -41 -33 -74 -37 -74 -5 0 -8 -5 -8 -12 0 -11 -28 -74 -76 -171
-28 -56 -30 -80 -9 -97 8 -7 15 -24 15 -39 0 -18 30 -61 96 -141 52 -63 102
-123 109 -132 8 -10 51 -61 95 -115 44 -53 80 -100 80 -105 0 -4 7 -8 15 -8 8
0 15 -4 15 -10 0 -15 440 -540 453 -540 6 0 7 -3 4 -6 -4 -4 20 -38 53 -76 33
-38 60 -73 60 -79 0 -5 7 -9 15 -9 8 0 15 -4 15 -10 0 -5 67 -90 148 -187 81
-98 228 -275 326 -393 98 -118 195 -235 216 -260 21 -25 66 -79 100 -120 35
-41 65 -74 69 -73 6 1 28 69 34 107 9 50 32 116 40 116 5 0 4 6 -2 14 -7 8 -8
17 -3 20 6 3 18 38 27 78 9 40 23 92 31 116 8 23 13 46 12 50 0 4 2 14 5 22 8
17 57 195 62 225 3 11 14 54 25 95 12 41 32 116 45 165 13 50 31 117 40 150 9
33 18 67 20 75 2 8 12 47 23 87 11 39 18 74 14 77 -3 3 0 6 7 6 7 0 11 8 10
18 -1 9 0 24 4 32 14 38 47 159 53 198 4 23 11 45 15 48 5 3 9 14 9 24 0 11 6
39 14 62 8 24 17 57 20 73 4 29 31 124 43 155 3 8 7 24 9 35 1 11 16 72 33
135 17 63 41 151 53 195 11 44 27 98 34 120 8 28 9 44 2 53 -7 8 -7 12 1 12 7
0 10 8 7 18 -3 9 -8 39 -11 65 -3 27 -9 56 -14 65 -5 10 -10 22 -11 27 -1 6
-7 21 -12 35 -6 14 -11 30 -12 35 -1 6 -14 33 -29 61 -32 63 -95 129 -169 176
-23 15 -201 71 -263 83 -73 14 -180 46 -185 56 -6 8 -9 8 -15 0 -4 -7 -11 -9
-18 -3 -7 5 -43 17 -82 27 -38 10 -76 22 -82 28 -9 6 -13 6 -13 -3 0 -9 -4 -9
-13 -2 -7 6 -24 13 -37 16 -14 3 -117 30 -230 61 -113 31 -212 57 -220 59 -8
2 -22 6 -30 9 -8 3 -48 13 -87 23 -40 9 -73 20 -73 23 0 4 -13 6 -30 5 -16 -1
-30 1 -30 5 0 4 -29 13 -64 20 -35 7 -76 19 -90 26 -14 8 -26 9 -26 4 0 -6 -9
-5 -22 2 -34 18 -155 47 -166 40z"/>
    <path d="M2383 4843 c-7 -15 -13 -33 -13 -40 0 -7 -5 -13 -11 -13 -8 0 -8 -4
0 -14 7 -8 8 -16 4 -18 -11 -4 -53 -106 -53 -127 0 -10 -4 -21 -9 -26 -10 -12
-46 -117 -43 -127 1 -5 -3 -8 -9 -8 -6 0 -9 -9 -6 -20 3 -10 2 -20 -3 -22 -4
-2 -29 -61 -55 -133 -26 -71 -50 -132 -54 -135 -3 -3 -6 -14 -7 -25 0 -11 -6
-32 -12 -47 -30 -69 -35 -84 -38 -95 -2 -14 -62 -178 -75 -208 -16 -37 -101
-279 -104 -294 -1 -8 -7 -17 -13 -19 -6 -2 -8 -10 -5 -18 3 -8 1 -20 -5 -27
-11 -14 -37 -89 -34 -99 1 -5 -2 -8 -7 -8 -18 0 -18 -49 0 -66 10 -9 19 -29
21 -45 2 -24 67 -93 322 -349 344 -343 331 -333 350 -255 4 16 13 33 19 37 7
4 12 11 12 15 2 19 30 83 37 83 4 0 7 3 6 8 -1 4 6 25 16 47 10 22 22 50 27
63 5 12 12 22 17 22 4 0 8 9 9 20 1 11 30 78 66 150 35 71 60 130 55 130 -4 0
0 8 10 18 11 11 27 42 37 70 11 29 23 52 27 52 4 0 8 5 8 11 0 6 15 44 34 83
18 39 39 88 46 108 8 20 17 35 22 32 4 -3 8 2 8 11 0 14 21 64 82 192 11 23
19 45 18 49 -1 4 2 10 7 13 4 3 20 29 34 58 25 49 25 54 10 75 -8 13 -16 33
-17 46 0 14 -45 76 -111 155 -60 73 -116 142 -124 155 -8 12 -21 25 -30 27 -9
3 -21 15 -26 28 -6 12 -38 54 -72 92 -33 39 -61 76 -61 83 0 6 -6 12 -12 12
-7 0 -22 13 -32 28 -33 45 -240 292 -246 292 -3 0 -11 -12 -17 -27z"/>
    <path d="M830 4073 c0 -34 -1 -37 -13 -52 -6 -7 -12 -25 -13 -40 0 -14 -6 -37
-11 -51 -6 -14 -14 -41 -18 -60 -4 -19 -10 -39 -13 -45 -4 -5 -7 -14 -7 -20
-1 -17 -16 -76 -37 -149 -11 -38 -21 -76 -23 -85 -4 -20 -120 -457 -140 -526
-39 -136 -96 -357 -98 -375 -1 -11 -5 -20 -10 -20 -4 0 -7 -8 -6 -17 1 -10 -1
-25 -4 -33 -21 -54 -97 -352 -91 -361 2 -4 -1 -9 -8 -11 -7 -3 -13 -18 -13
-34 0 -16 -3 -33 -7 -39 -3 -5 -18 -57 -33 -115 -52 -203 -58 -220 -67 -220
-6 0 -6 -6 1 -14 10 -11 8 -17 -6 -25 -10 -6 -13 -11 -5 -11 10 0 10 -5 1 -22
-27 -50 -26 -221 2 -254 5 -6 9 -16 8 -20 -1 -5 3 -22 10 -39 7 -16 14 -34 15
-40 11 -53 126 -205 156 -205 5 0 10 -3 10 -8 0 -8 75 -47 110 -57 14 -3 66
-18 115 -31 138 -38 195 -52 195 -46 0 2 6 0 13 -6 6 -6 28 -13 47 -17 l36 -6
23 68 c13 37 29 82 36 98 7 17 21 54 31 83 10 28 20 52 23 52 4 0 7 14 8 31 1
17 6 36 11 43 5 6 15 29 22 51 7 22 20 56 28 75 9 19 16 40 17 45 1 6 4 17 8
25 3 8 13 33 20 55 45 129 81 220 88 223 4 2 5 10 2 18 -3 8 -1 20 5 27 5 6
15 30 22 52 7 22 17 46 23 53 5 6 6 12 2 12 -4 0 -3 6 3 13 6 6 10 14 10 17 0
21 17 68 30 83 8 9 12 17 9 17 -6 0 16 66 46 140 6 14 9 31 8 37 -1 7 3 13 10
13 6 0 9 8 6 20 -3 11 -1 20 4 20 5 0 9 6 9 13 0 6 6 24 14 39 8 15 17 42 21
60 4 18 11 38 15 43 6 9 43 111 45 125 0 3 4 11 8 17 4 7 15 35 23 63 8 27 19
50 23 50 5 0 7 9 4 20 -3 13 0 20 8 20 11 0 11 2 -1 10 -8 5 -10 10 -4 10 6 0
19 25 29 55 11 30 23 55 28 55 4 0 6 4 2 9 -3 6 10 49 29 98 l35 88 -21 22
c-12 13 -19 30 -16 41 4 15 -92 116 -418 443 -321 321 -424 419 -424 402z"/>
    <path d="M3176 3854 c-14 -31 -23 -60 -20 -65 3 -5 0 -9 -6 -9 -11 0 -56 -88
-52 -102 1 -5 -3 -8 -8 -8 -5 0 -9 -3 -8 -7 1 -5 -9 -30 -22 -58 -13 -27 -22
-54 -21 -59 1 -4 -5 -13 -13 -20 -7 -6 -19 -28 -26 -48 -6 -21 -15 -38 -20
-38 -4 0 -7 -8 -6 -17 2 -10 0 -20 -4 -23 -10 -7 -78 -153 -86 -185 -3 -13
-10 -22 -15 -19 -5 3 -9 -4 -9 -15 0 -12 -4 -21 -8 -21 -5 0 -9 -6 -9 -12 0
-7 -24 -62 -53 -123 -30 -60 -54 -112 -55 -115 -6 -28 -18 -50 -26 -50 -5 0
-9 -7 -9 -16 0 -8 -22 -62 -50 -120 -27 -58 -50 -109 -50 -114 0 -6 -3 -10 -8
-10 -4 0 -12 -17 -19 -37 -10 -34 -9 -40 9 -60 12 -13 18 -29 14 -40 -9 -27
2156 -2191 2173 -2172 26 32 60 89 51 89 -4 0 -2 14 7 30 8 17 12 37 9 45 -3
8 -2 15 3 15 4 0 14 26 21 58 7 31 15 62 18 67 4 6 7 19 8 30 1 11 12 54 24
95 12 41 23 82 25 90 2 8 17 67 35 130 45 163 49 183 44 192 -3 4 -1 8 4 8 5
0 15 28 22 63 7 34 16 66 21 71 4 5 5 15 2 22 -3 8 -1 14 5 14 5 0 8 10 8 23
-1 12 1 27 5 32 6 9 30 95 46 162 3 13 -2 28 -14 40 -10 10 -17 26 -15 36 4
21 -12 48 -71 116 -83 97 -132 155 -157 186 -14 18 -80 98 -147 178 -68 80
-123 148 -123 150 0 3 -19 25 -42 50 -24 25 -74 84 -113 132 -38 48 -82 101
-97 119 -24 27 -79 94 -181 220 -18 21 -37 44 -43 50 -27 29 -124 146 -124
150 0 3 -19 25 -42 49 -24 24 -56 63 -72 86 -17 23 -39 49 -50 57 -11 8 -17
14 -13 14 4 0 -1 9 -10 19 -10 11 -23 26 -28 33 -21 26 -178 214 -200 240 -13
14 -21 29 -18 32 4 3 -1 6 -10 6 -10 0 -17 5 -17 10 0 6 -39 56 -86 113 -103
123 -103 122 -183 220 -35 42 -65 77 -67 77 -1 0 -14 -25 -28 -56z"/>
    <path d="M1771 3140 c-9 -5 -112 -276 -113 -297 -1 -7 -4 -13 -8 -13 -4 0 -7
-6 -7 -12 0 -7 -21 -71 -48 -143 -26 -71 -48 -137 -49 -145 0 -8 -7 -21 -14
-29 -8 -8 -11 -22 -9 -32 3 -11 2 -19 -2 -19 -8 0 -101 -249 -101 -269 0 -6
-5 -11 -11 -11 -5 0 -7 -5 -4 -10 4 -6 2 -16 -3 -23 -11 -14 -47 -122 -41
-123 2 0 -1 -7 -8 -15 -6 -8 -24 -52 -39 -99 -16 -47 -33 -88 -37 -91 -5 -3
-8 -8 -6 -10 3 -5 -31 -109 -44 -134 -6 -11 -12 -27 -13 -35 -1 -13 -72 -206
-91 -250 -4 -8 -8 -19 -8 -25 -1 -5 -7 -21 -12 -35 -6 -14 -19 -50 -29 -80
-11 -30 -23 -58 -29 -62 -6 -5 -4 -8 4 -8 12 0 12 -2 -1 -12 -9 -7 -18 -25
-22 -40 -3 -14 -9 -33 -12 -41 -4 -11 2 -16 18 -19 23 -3 27 -15 14 -54 -4
-13 -2 -21 6 -22 7 0 87 -21 178 -46 91 -25 173 -46 182 -46 9 0 23 -7 32 -15
10 -10 17 -12 21 -5 5 8 12 7 22 -2 9 -7 21 -13 27 -13 27 -2 136 -30 136 -35
0 -3 9 -6 20 -6 14 0 27 16 45 53 14 30 25 58 25 63 0 5 6 15 13 22 7 7 20 33
30 58 9 25 39 89 66 143 26 53 44 97 39 97 -5 0 0 10 11 22 12 12 24 31 27 42
4 12 29 68 56 126 28 58 59 125 70 150 59 130 81 175 87 180 3 3 7 12 9 20 2
8 19 49 39 90 19 41 53 113 75 160 22 47 53 112 69 146 16 33 29 66 29 72 0 7
4 12 10 12 5 0 9 3 8 8 -1 4 10 33 26 66 37 78 40 97 16 113 -14 10 -18 21
-14 37 4 17 -1 29 -20 43 -14 11 -24 22 -23 24 5 8 -584 585 -592 579z"/>
    <path d="M2500 2395 c0 -8 -4 -15 -10 -15 -5 0 -9 -3 -8 -7 3 -13 -28 -78 -46
-96 -10 -9 -13 -17 -8 -17 6 0 -8 -34 -29 -75 -22 -41 -40 -78 -41 -82 -1 -8
-43 -99 -126 -273 -20 -41 -36 -77 -37 -80 0 -3 -14 -32 -30 -65 -16 -33 -30
-67 -31 -75 -2 -8 -8 -16 -13 -18 -6 -2 -11 -11 -11 -19 0 -9 -12 -37 -27 -62
-15 -25 -26 -48 -26 -51 1 -11 -19 -54 -37 -80 -11 -15 -17 -30 -13 -33 3 -4
1 -13 -5 -20 -7 -8 -9 -17 -5 -20 3 -4 2 -7 -4 -7 -12 0 -53 -90 -53 -116 0
-10 -3 -14 -7 -11 -8 8 -37 -52 -34 -70 1 -7 -3 -13 -9 -13 -5 0 -9 -3 -8 -7
1 -5 -22 -56 -50 -115 -29 -59 -52 -108 -52 -110 0 -2 10 -4 21 -5 31 -3 34
-10 22 -43 -11 -30 -11 -30 40 -44 172 -50 245 -69 267 -72 14 -1 26 -3 28 -4
1 -2 5 -3 10 -4 4 -1 12 -4 17 -7 6 -3 37 -12 70 -19 33 -7 72 -19 88 -27 19
-10 27 -10 27 -2 0 8 4 8 15 -1 8 -7 15 -9 15 -4 0 5 4 4 8 -1 8 -12 155 -51
185 -49 9 0 17 -3 17 -7 0 -4 33 -14 73 -24 39 -9 79 -19 87 -22 8 -4 17 -7
20 -8 142 -35 190 -49 190 -57 0 -6 6 -5 15 2 11 9 15 9 15 1 0 -7 5 -9 10 -6
6 3 10 2 10 -2 0 -5 12 -9 28 -8 15 0 38 -5 52 -12 13 -7 44 -15 67 -19 24 -3
43 -9 43 -13 0 -4 14 -8 32 -9 18 -2 35 -6 38 -10 3 -4 14 -8 25 -8 11 -1 146
-36 299 -77 154 -42 283 -74 288 -71 4 3 8 1 8 -5 0 -5 19 -13 43 -17 23 -4
44 -8 47 -9 40 -10 98 -27 110 -32 16 -7 23 -8 60 -17 14 -3 59 -15 100 -26
41 -12 93 -22 115 -22 53 -1 133 10 153 21 10 5 20 9 25 10 14 1 106 51 111
59 3 5 -6 19 -19 32 -18 17 -22 27 -15 39 7 13 -200 225 -1058 1084 -587 587
-1070 1067 -1074 1067 -5 0 -8 -7 -8 -15z"/>
  </g>
</svg>
